<mxfile host="app.diagrams.net" modified="2021-02-26T14:33:39.943Z" agent="5.0 (Windows NT 10.0; Win64; x64) AppleWebKit/537.36 (KHTML, like Gecko) Chrome/88.0.4324.182 Safari/537.36 Edg/88.0.705.74" etag="eHMkZiq_swlM_eVOAz04" version="14.4.3" type="github">
  <diagram id="EMfBZhS0kfHRQqi8T7G2" name="Page-1">
    <mxGraphModel dx="1673" dy="934" grid="1" gridSize="10" guides="1" tooltips="1" connect="1" arrows="1" fold="1" page="1" pageScale="1" pageWidth="827" pageHeight="1169" math="0" shadow="0">
      <root>
        <mxCell id="0" />
        <mxCell id="1" parent="0" />
        <mxCell id="H9VFPsW1GKJV4QCEXE3p-92" value="" style="endArrow=classic;html=1;exitX=0;exitY=0.5;exitDx=0;exitDy=0;entryX=0;entryY=0.5;entryDx=0;entryDy=0;fillColor=#6a00ff;strokeColor=#3700CC;rounded=0;strokeWidth=2;dashed=1;" edge="1" parent="1" source="H9VFPsW1GKJV4QCEXE3p-12" target="H9VFPsW1GKJV4QCEXE3p-33">
          <mxGeometry width="50" height="50" relative="1" as="geometry">
            <mxPoint x="100" y="430" as="sourcePoint" />
            <mxPoint x="100" y="769.9999999999998" as="targetPoint" />
            <Array as="points">
              <mxPoint x="170" y="400" />
              <mxPoint x="170" y="600" />
            </Array>
          </mxGeometry>
        </mxCell>
        <mxCell id="H9VFPsW1GKJV4QCEXE3p-91" value="" style="endArrow=classic;html=1;exitX=1;exitY=0.5;exitDx=0;exitDy=0;entryX=1;entryY=0.5;entryDx=0;entryDy=0;fillColor=#6a00ff;strokeColor=#3700CC;rounded=0;strokeWidth=2;dashed=1;" edge="1" parent="1" source="H9VFPsW1GKJV4QCEXE3p-79" target="H9VFPsW1GKJV4QCEXE3p-90">
          <mxGeometry width="50" height="50" relative="1" as="geometry">
            <mxPoint x="940" y="200" as="sourcePoint" />
            <mxPoint x="940" y="840" as="targetPoint" />
            <Array as="points">
              <mxPoint x="610" y="200" />
              <mxPoint x="610" y="360" />
              <mxPoint x="610" y="540" />
            </Array>
          </mxGeometry>
        </mxCell>
        <mxCell id="H9VFPsW1GKJV4QCEXE3p-53" style="edgeStyle=orthogonalEdgeStyle;rounded=0;orthogonalLoop=1;jettySize=auto;html=1;exitX=0.5;exitY=1;exitDx=0;exitDy=0;entryX=0.5;entryY=0;entryDx=0;entryDy=0;fillColor=#ffe6cc;strokeColor=#d79b00;" edge="1" parent="1" source="H9VFPsW1GKJV4QCEXE3p-84" target="H9VFPsW1GKJV4QCEXE3p-44">
          <mxGeometry relative="1" as="geometry">
            <mxPoint x="220" y="150" as="sourcePoint" />
            <mxPoint x="220" y="390" as="targetPoint" />
          </mxGeometry>
        </mxCell>
        <mxCell id="H9VFPsW1GKJV4QCEXE3p-54" style="edgeStyle=orthogonalEdgeStyle;rounded=0;orthogonalLoop=1;jettySize=auto;html=1;exitX=0.5;exitY=1;exitDx=0;exitDy=0;entryX=0.5;entryY=0;entryDx=0;entryDy=0;fillColor=#ffe6cc;strokeColor=#d79b00;" edge="1" parent="1" source="H9VFPsW1GKJV4QCEXE3p-96" target="H9VFPsW1GKJV4QCEXE3p-45">
          <mxGeometry relative="1" as="geometry">
            <mxPoint x="220" y="550" as="sourcePoint" />
            <mxPoint x="220" y="710" as="targetPoint" />
          </mxGeometry>
        </mxCell>
        <mxCell id="H9VFPsW1GKJV4QCEXE3p-55" style="edgeStyle=orthogonalEdgeStyle;rounded=0;orthogonalLoop=1;jettySize=auto;html=1;exitX=0.5;exitY=1;exitDx=0;exitDy=0;fillColor=#ffe6cc;strokeColor=#d79b00;" edge="1" parent="1" source="H9VFPsW1GKJV4QCEXE3p-86" target="H9VFPsW1GKJV4QCEXE3p-46">
          <mxGeometry relative="1" as="geometry">
            <mxPoint x="230" y="560" as="sourcePoint" />
            <mxPoint x="230" y="720" as="targetPoint" />
          </mxGeometry>
        </mxCell>
        <mxCell id="H9VFPsW1GKJV4QCEXE3p-56" style="edgeStyle=orthogonalEdgeStyle;rounded=0;orthogonalLoop=1;jettySize=auto;html=1;exitX=0.5;exitY=1;exitDx=0;exitDy=0;entryX=0.5;entryY=0;entryDx=0;entryDy=0;fillColor=#ffe6cc;strokeColor=#d79b00;" edge="1" parent="1" source="H9VFPsW1GKJV4QCEXE3p-87" target="H9VFPsW1GKJV4QCEXE3p-47">
          <mxGeometry relative="1" as="geometry">
            <mxPoint x="240" y="570" as="sourcePoint" />
            <mxPoint x="240" y="730" as="targetPoint" />
          </mxGeometry>
        </mxCell>
        <mxCell id="H9VFPsW1GKJV4QCEXE3p-57" style="edgeStyle=orthogonalEdgeStyle;rounded=0;orthogonalLoop=1;jettySize=auto;html=1;exitX=0.5;exitY=1;exitDx=0;exitDy=0;fillColor=#ffe6cc;strokeColor=#d79b00;" edge="1" parent="1" source="H9VFPsW1GKJV4QCEXE3p-88" target="H9VFPsW1GKJV4QCEXE3p-48">
          <mxGeometry relative="1" as="geometry">
            <mxPoint x="250" y="580" as="sourcePoint" />
            <mxPoint x="250" y="740" as="targetPoint" />
          </mxGeometry>
        </mxCell>
        <mxCell id="H9VFPsW1GKJV4QCEXE3p-58" style="edgeStyle=orthogonalEdgeStyle;rounded=0;orthogonalLoop=1;jettySize=auto;html=1;exitX=0.5;exitY=1;exitDx=0;exitDy=0;entryX=0.5;entryY=0;entryDx=0;entryDy=0;fillColor=#ffe6cc;strokeColor=#d79b00;" edge="1" parent="1" source="H9VFPsW1GKJV4QCEXE3p-89" target="H9VFPsW1GKJV4QCEXE3p-49">
          <mxGeometry relative="1" as="geometry">
            <mxPoint x="260" y="590" as="sourcePoint" />
            <mxPoint x="260" y="750" as="targetPoint" />
          </mxGeometry>
        </mxCell>
        <mxCell id="H9VFPsW1GKJV4QCEXE3p-60" style="edgeStyle=orthogonalEdgeStyle;rounded=0;orthogonalLoop=1;jettySize=auto;html=1;exitX=0.5;exitY=1;exitDx=0;exitDy=0;entryX=0.5;entryY=0;entryDx=0;entryDy=0;fillColor=#ffe6cc;strokeColor=#d79b00;" edge="1" parent="1" source="H9VFPsW1GKJV4QCEXE3p-90" target="H9VFPsW1GKJV4QCEXE3p-50">
          <mxGeometry relative="1" as="geometry">
            <mxPoint x="270" y="600" as="sourcePoint" />
            <mxPoint x="270" y="760" as="targetPoint" />
          </mxGeometry>
        </mxCell>
        <mxCell id="H9VFPsW1GKJV4QCEXE3p-23" style="edgeStyle=orthogonalEdgeStyle;rounded=0;orthogonalLoop=1;jettySize=auto;html=1;exitX=0.5;exitY=1;exitDx=0;exitDy=0;entryX=0.5;entryY=0;entryDx=0;entryDy=0;fillColor=#ffe6cc;strokeColor=#d79b00;" edge="1" parent="1" source="H9VFPsW1GKJV4QCEXE3p-3" target="H9VFPsW1GKJV4QCEXE3p-13">
          <mxGeometry relative="1" as="geometry">
            <mxPoint x="220" y="90" as="sourcePoint" />
            <mxPoint x="220" y="330" as="targetPoint" />
          </mxGeometry>
        </mxCell>
        <mxCell id="H9VFPsW1GKJV4QCEXE3p-24" style="edgeStyle=orthogonalEdgeStyle;rounded=0;orthogonalLoop=1;jettySize=auto;html=1;exitX=0.5;exitY=1;exitDx=0;exitDy=0;entryX=0.5;entryY=0;entryDx=0;entryDy=0;fillColor=#ffe6cc;strokeColor=#d79b00;" edge="1" parent="1" source="H9VFPsW1GKJV4QCEXE3p-4" target="H9VFPsW1GKJV4QCEXE3p-14">
          <mxGeometry relative="1" as="geometry">
            <mxPoint x="280" y="90" as="sourcePoint" />
            <mxPoint x="280" y="330" as="targetPoint" />
          </mxGeometry>
        </mxCell>
        <mxCell id="H9VFPsW1GKJV4QCEXE3p-25" style="edgeStyle=orthogonalEdgeStyle;rounded=0;orthogonalLoop=1;jettySize=auto;html=1;exitX=0.5;exitY=1;exitDx=0;exitDy=0;entryX=0.5;entryY=0;entryDx=0;entryDy=0;fillColor=#ffe6cc;strokeColor=#d79b00;" edge="1" parent="1" source="H9VFPsW1GKJV4QCEXE3p-5" target="H9VFPsW1GKJV4QCEXE3p-15">
          <mxGeometry relative="1" as="geometry">
            <mxPoint x="290" y="100" as="sourcePoint" />
            <mxPoint x="290" y="340" as="targetPoint" />
          </mxGeometry>
        </mxCell>
        <mxCell id="H9VFPsW1GKJV4QCEXE3p-26" style="edgeStyle=orthogonalEdgeStyle;rounded=0;orthogonalLoop=1;jettySize=auto;html=1;exitX=0.5;exitY=1;exitDx=0;exitDy=0;entryX=0.5;entryY=0;entryDx=0;entryDy=0;fillColor=#ffe6cc;strokeColor=#d79b00;" edge="1" parent="1" source="H9VFPsW1GKJV4QCEXE3p-6" target="H9VFPsW1GKJV4QCEXE3p-16">
          <mxGeometry relative="1" as="geometry">
            <mxPoint x="300" y="110" as="sourcePoint" />
            <mxPoint x="300" y="350" as="targetPoint" />
          </mxGeometry>
        </mxCell>
        <mxCell id="H9VFPsW1GKJV4QCEXE3p-27" style="edgeStyle=orthogonalEdgeStyle;rounded=0;orthogonalLoop=1;jettySize=auto;html=1;exitX=0.5;exitY=1;exitDx=0;exitDy=0;entryX=0.5;entryY=0;entryDx=0;entryDy=0;fillColor=#ffe6cc;strokeColor=#d79b00;" edge="1" parent="1" source="H9VFPsW1GKJV4QCEXE3p-7" target="H9VFPsW1GKJV4QCEXE3p-17">
          <mxGeometry relative="1" as="geometry">
            <mxPoint x="310" y="120" as="sourcePoint" />
            <mxPoint x="310" y="360" as="targetPoint" />
          </mxGeometry>
        </mxCell>
        <mxCell id="H9VFPsW1GKJV4QCEXE3p-28" style="edgeStyle=orthogonalEdgeStyle;rounded=0;orthogonalLoop=1;jettySize=auto;html=1;exitX=0.5;exitY=1;exitDx=0;exitDy=0;entryX=0.5;entryY=0;entryDx=0;entryDy=0;fillColor=#ffe6cc;strokeColor=#d79b00;" edge="1" parent="1" source="H9VFPsW1GKJV4QCEXE3p-8" target="H9VFPsW1GKJV4QCEXE3p-18">
          <mxGeometry relative="1" as="geometry">
            <mxPoint x="320" y="130" as="sourcePoint" />
            <mxPoint x="320" y="370" as="targetPoint" />
          </mxGeometry>
        </mxCell>
        <mxCell id="H9VFPsW1GKJV4QCEXE3p-22" style="edgeStyle=orthogonalEdgeStyle;rounded=0;orthogonalLoop=1;jettySize=auto;html=1;exitX=0.5;exitY=1;exitDx=0;exitDy=0;entryX=0.5;entryY=0;entryDx=0;entryDy=0;fillColor=#ffe6cc;strokeColor=#d79b00;" edge="1" parent="1" source="H9VFPsW1GKJV4QCEXE3p-2" target="H9VFPsW1GKJV4QCEXE3p-12">
          <mxGeometry relative="1" as="geometry" />
        </mxCell>
        <mxCell id="H9VFPsW1GKJV4QCEXE3p-2" value="" style="shape=ext;double=1;rounded=0;whiteSpace=wrap;html=1;fillColor=#d5e8d4;strokeColor=none;fontSize=24;" vertex="1" parent="1">
          <mxGeometry x="190" y="40" width="40" height="40" as="geometry" />
        </mxCell>
        <mxCell id="H9VFPsW1GKJV4QCEXE3p-3" value="" style="shape=ext;double=1;rounded=0;whiteSpace=wrap;html=1;fillColor=#d5e8d4;strokeColor=none;fontSize=24;" vertex="1" parent="1">
          <mxGeometry x="250" y="40" width="40" height="40" as="geometry" />
        </mxCell>
        <mxCell id="H9VFPsW1GKJV4QCEXE3p-4" value="" style="shape=ext;double=1;rounded=0;whiteSpace=wrap;html=1;fillColor=#d5e8d4;strokeColor=none;fontSize=24;" vertex="1" parent="1">
          <mxGeometry x="310" y="40" width="40" height="40" as="geometry" />
        </mxCell>
        <mxCell id="H9VFPsW1GKJV4QCEXE3p-5" value="" style="shape=ext;double=1;rounded=0;whiteSpace=wrap;html=1;fillColor=#d5e8d4;strokeColor=none;fontSize=24;" vertex="1" parent="1">
          <mxGeometry x="370" y="40" width="40" height="40" as="geometry" />
        </mxCell>
        <mxCell id="H9VFPsW1GKJV4QCEXE3p-6" value="" style="shape=ext;double=1;rounded=0;whiteSpace=wrap;html=1;fillColor=#d5e8d4;strokeColor=none;fontSize=24;" vertex="1" parent="1">
          <mxGeometry x="430" y="40" width="40" height="40" as="geometry" />
        </mxCell>
        <mxCell id="H9VFPsW1GKJV4QCEXE3p-7" value="" style="shape=ext;double=1;rounded=0;whiteSpace=wrap;html=1;fillColor=#d5e8d4;strokeColor=none;fontSize=24;" vertex="1" parent="1">
          <mxGeometry x="490" y="40" width="40" height="40" as="geometry" />
        </mxCell>
        <mxCell id="H9VFPsW1GKJV4QCEXE3p-8" value="" style="shape=ext;double=1;rounded=0;whiteSpace=wrap;html=1;fillColor=#d5e8d4;strokeColor=none;fontSize=24;" vertex="1" parent="1">
          <mxGeometry x="550" y="40" width="40" height="40" as="geometry" />
        </mxCell>
        <mxCell id="H9VFPsW1GKJV4QCEXE3p-9" value="&lt;font style=&quot;font-size: 20px&quot;&gt;&lt;b style=&quot;font-size: 20px&quot;&gt;Embedding&lt;/b&gt;&lt;/font&gt;" style="rounded=0;whiteSpace=wrap;html=1;shadow=0;glass=0;sketch=0;gradientColor=none;fillColor=#99CCFF;fontSize=20;strokeColor=none;" vertex="1" parent="1">
          <mxGeometry x="190" y="120" width="400" height="40" as="geometry" />
        </mxCell>
        <mxCell id="H9VFPsW1GKJV4QCEXE3p-12" value="" style="shape=ext;double=1;rounded=0;whiteSpace=wrap;html=1;fontSize=24;fillColor=#e1d5e7;strokeColor=none;" vertex="1" parent="1">
          <mxGeometry x="190" y="380" width="40" height="40" as="geometry" />
        </mxCell>
        <mxCell id="H9VFPsW1GKJV4QCEXE3p-13" value="" style="shape=ext;double=1;rounded=0;whiteSpace=wrap;html=1;fontSize=24;fillColor=#6a00ff;fontColor=#ffffff;strokeColor=none;" vertex="1" parent="1">
          <mxGeometry x="250" y="380" width="40" height="40" as="geometry" />
        </mxCell>
        <mxCell id="H9VFPsW1GKJV4QCEXE3p-14" value="" style="shape=ext;double=1;rounded=0;whiteSpace=wrap;html=1;fontSize=24;fillColor=#e1d5e7;strokeColor=none;" vertex="1" parent="1">
          <mxGeometry x="310" y="380" width="40" height="40" as="geometry" />
        </mxCell>
        <mxCell id="H9VFPsW1GKJV4QCEXE3p-15" value="" style="shape=ext;double=1;rounded=0;whiteSpace=wrap;html=1;fontSize=24;fillColor=#e1d5e7;strokeColor=none;" vertex="1" parent="1">
          <mxGeometry x="370" y="380" width="40" height="40" as="geometry" />
        </mxCell>
        <mxCell id="H9VFPsW1GKJV4QCEXE3p-16" value="" style="shape=ext;double=1;rounded=0;whiteSpace=wrap;html=1;fontSize=24;fillColor=#e1d5e7;strokeColor=none;" vertex="1" parent="1">
          <mxGeometry x="430" y="380" width="40" height="40" as="geometry" />
        </mxCell>
        <mxCell id="H9VFPsW1GKJV4QCEXE3p-17" value="" style="shape=ext;double=1;rounded=0;whiteSpace=wrap;html=1;fontSize=24;fillColor=#6a00ff;fontColor=#ffffff;strokeColor=none;" vertex="1" parent="1">
          <mxGeometry x="490" y="380" width="40" height="40" as="geometry" />
        </mxCell>
        <mxCell id="H9VFPsW1GKJV4QCEXE3p-18" value="" style="shape=ext;double=1;rounded=0;whiteSpace=wrap;html=1;fontSize=24;fillColor=#e1d5e7;strokeColor=none;" vertex="1" parent="1">
          <mxGeometry x="550" y="380" width="40" height="40" as="geometry" />
        </mxCell>
        <mxCell id="H9VFPsW1GKJV4QCEXE3p-29" value="" style="endArrow=classic;html=1;exitX=1;exitY=0.5;exitDx=0;exitDy=0;strokeWidth=2;fillColor=#cce5ff;strokeColor=#A9C4EB;" edge="1" parent="1" source="H9VFPsW1GKJV4QCEXE3p-18">
          <mxGeometry width="50" height="50" relative="1" as="geometry">
            <mxPoint x="710" y="300" as="sourcePoint" />
            <mxPoint x="680" y="400" as="targetPoint" />
          </mxGeometry>
        </mxCell>
        <mxCell id="H9VFPsW1GKJV4QCEXE3p-30" value="Subject Loss" style="text;html=1;strokeColor=none;fillColor=none;align=center;verticalAlign=middle;whiteSpace=wrap;rounded=0;fontSize=20;" vertex="1" parent="1">
          <mxGeometry x="630" y="370" width="120" height="20" as="geometry" />
        </mxCell>
        <mxCell id="H9VFPsW1GKJV4QCEXE3p-19" value="&lt;font style=&quot;font-size: 20px&quot;&gt;&lt;b style=&quot;font-size: 20px&quot;&gt;Dense&lt;/b&gt;&lt;/font&gt;" style="rounded=0;whiteSpace=wrap;html=1;shadow=0;glass=0;sketch=0;gradientColor=none;fillColor=#99CCFF;fontSize=20;strokeColor=none;" vertex="1" parent="1">
          <mxGeometry x="190" y="300" width="400" height="40" as="geometry" />
        </mxCell>
        <mxCell id="H9VFPsW1GKJV4QCEXE3p-33" value="" style="shape=ext;double=1;rounded=0;whiteSpace=wrap;html=1;fontSize=24;fillColor=#e1d5e7;strokeColor=none;" vertex="1" parent="1">
          <mxGeometry x="190" y="580" width="40" height="40" as="geometry" />
        </mxCell>
        <mxCell id="H9VFPsW1GKJV4QCEXE3p-35" value="" style="shape=ext;double=1;rounded=0;whiteSpace=wrap;html=1;fontSize=24;fillColor=#e1d5e7;strokeColor=none;" vertex="1" parent="1">
          <mxGeometry x="310" y="580" width="40" height="40" as="geometry" />
        </mxCell>
        <mxCell id="H9VFPsW1GKJV4QCEXE3p-36" value="" style="shape=ext;double=1;rounded=0;whiteSpace=wrap;html=1;fontSize=24;fillColor=#e1d5e7;strokeColor=none;" vertex="1" parent="1">
          <mxGeometry x="370" y="580" width="40" height="40" as="geometry" />
        </mxCell>
        <mxCell id="H9VFPsW1GKJV4QCEXE3p-37" value="" style="shape=ext;double=1;rounded=0;whiteSpace=wrap;html=1;fontSize=24;fillColor=#e1d5e7;strokeColor=none;" vertex="1" parent="1">
          <mxGeometry x="430" y="580" width="40" height="40" as="geometry" />
        </mxCell>
        <mxCell id="H9VFPsW1GKJV4QCEXE3p-38" value="" style="shape=ext;double=1;rounded=0;whiteSpace=wrap;html=1;fontSize=24;fillColor=#6a00ff;fontColor=#ffffff;strokeColor=none;" vertex="1" parent="1">
          <mxGeometry x="490" y="580" width="40" height="40" as="geometry" />
        </mxCell>
        <mxCell id="H9VFPsW1GKJV4QCEXE3p-39" value="" style="shape=ext;double=1;rounded=0;whiteSpace=wrap;html=1;fontSize=24;fillColor=#e1d5e7;strokeColor=none;" vertex="1" parent="1">
          <mxGeometry x="550" y="580" width="40" height="40" as="geometry" />
        </mxCell>
        <mxCell id="H9VFPsW1GKJV4QCEXE3p-41" value="&lt;font style=&quot;font-size: 20px&quot;&gt;&lt;b style=&quot;font-size: 20px&quot;&gt;... ...&lt;/b&gt;&lt;/font&gt;" style="rounded=0;whiteSpace=wrap;html=1;shadow=0;glass=0;sketch=0;gradientColor=none;fillColor=#99CCFF;fontSize=20;strokeColor=none;" vertex="1" parent="1">
          <mxGeometry x="190" y="240" width="400" height="40" as="geometry" />
        </mxCell>
        <mxCell id="H9VFPsW1GKJV4QCEXE3p-42" value="&lt;font style=&quot;font-size: 20px&quot;&gt;&lt;b style=&quot;font-size: 20px&quot;&gt;Dense&lt;/b&gt;&lt;/font&gt;" style="rounded=0;whiteSpace=wrap;html=1;shadow=0;glass=0;sketch=0;gradientColor=none;fillColor=#99CCFF;fontSize=20;strokeColor=none;" vertex="1" parent="1">
          <mxGeometry x="190" y="700" width="400" height="40" as="geometry" />
        </mxCell>
        <mxCell id="H9VFPsW1GKJV4QCEXE3p-43" value="&lt;font style=&quot;font-size: 20px&quot;&gt;&lt;b style=&quot;font-size: 20px&quot;&gt;... ...&lt;/b&gt;&lt;/font&gt;" style="rounded=0;whiteSpace=wrap;html=1;shadow=0;glass=0;sketch=0;gradientColor=none;fillColor=#99CCFF;fontSize=20;strokeColor=none;" vertex="1" parent="1">
          <mxGeometry x="190" y="640" width="400" height="40" as="geometry" />
        </mxCell>
        <mxCell id="H9VFPsW1GKJV4QCEXE3p-44" value="" style="shape=ext;double=1;rounded=0;whiteSpace=wrap;html=1;fontSize=24;strokeColor=none;fillColor=#FFE599;" vertex="1" parent="1">
          <mxGeometry x="190" y="780" width="40" height="40" as="geometry" />
        </mxCell>
        <mxCell id="H9VFPsW1GKJV4QCEXE3p-45" value="" style="shape=ext;double=1;rounded=0;whiteSpace=wrap;html=1;fontSize=24;strokeColor=none;fillColor=#FFE599;" vertex="1" parent="1">
          <mxGeometry x="250" y="780" width="40" height="40" as="geometry" />
        </mxCell>
        <mxCell id="H9VFPsW1GKJV4QCEXE3p-46" value="" style="shape=ext;double=1;rounded=0;whiteSpace=wrap;html=1;fontSize=24;strokeColor=none;fillColor=#FFFF00;" vertex="1" parent="1">
          <mxGeometry x="310" y="780" width="40" height="40" as="geometry" />
        </mxCell>
        <mxCell id="H9VFPsW1GKJV4QCEXE3p-47" value="" style="shape=ext;double=1;rounded=0;whiteSpace=wrap;html=1;fontSize=24;strokeColor=none;fillColor=#FFE599;" vertex="1" parent="1">
          <mxGeometry x="370" y="780" width="40" height="40" as="geometry" />
        </mxCell>
        <mxCell id="H9VFPsW1GKJV4QCEXE3p-48" value="" style="shape=ext;double=1;rounded=0;whiteSpace=wrap;html=1;fontSize=24;strokeColor=none;fillColor=#FFE599;" vertex="1" parent="1">
          <mxGeometry x="430" y="780" width="40" height="40" as="geometry" />
        </mxCell>
        <mxCell id="H9VFPsW1GKJV4QCEXE3p-49" value="" style="shape=ext;double=1;rounded=0;whiteSpace=wrap;html=1;fontSize=24;fontColor=#ffffff;strokeColor=none;fillColor=#FFFF00;" vertex="1" parent="1">
          <mxGeometry x="490" y="780" width="40" height="40" as="geometry" />
        </mxCell>
        <mxCell id="H9VFPsW1GKJV4QCEXE3p-50" value="" style="shape=ext;double=1;rounded=0;whiteSpace=wrap;html=1;fontSize=24;strokeColor=none;fillColor=#FFE599;" vertex="1" parent="1">
          <mxGeometry x="550" y="780" width="40" height="40" as="geometry" />
        </mxCell>
        <mxCell id="H9VFPsW1GKJV4QCEXE3p-61" value="" style="endArrow=classic;html=1;exitX=1;exitY=0.5;exitDx=0;exitDy=0;strokeWidth=2;fillColor=#cce5ff;strokeColor=#A9C4EB;" edge="1" parent="1" source="H9VFPsW1GKJV4QCEXE3p-50">
          <mxGeometry width="50" height="50" relative="1" as="geometry">
            <mxPoint x="600" y="410" as="sourcePoint" />
            <mxPoint x="680" y="800" as="targetPoint" />
          </mxGeometry>
        </mxCell>
        <mxCell id="H9VFPsW1GKJV4QCEXE3p-62" value="PO Loss" style="text;html=1;strokeColor=none;fillColor=none;align=center;verticalAlign=middle;whiteSpace=wrap;rounded=0;fontSize=20;" vertex="1" parent="1">
          <mxGeometry x="620" y="810" width="110" height="20" as="geometry" />
        </mxCell>
        <mxCell id="H9VFPsW1GKJV4QCEXE3p-63" value="" style="shape=curlyBracket;whiteSpace=wrap;html=1;rounded=1;fillColor=#FFFF00;size=0.5;rotation=-180;strokeColor=#A9C4EB;strokeWidth=2;" vertex="1" parent="1">
          <mxGeometry x="680" y="400" width="20" height="400" as="geometry" />
        </mxCell>
        <mxCell id="H9VFPsW1GKJV4QCEXE3p-64" value="Total Loss" style="text;html=1;strokeColor=none;fillColor=none;align=center;verticalAlign=middle;whiteSpace=wrap;rounded=0;fontSize=20;" vertex="1" parent="1">
          <mxGeometry x="700" y="590" width="100" height="20" as="geometry" />
        </mxCell>
        <mxCell id="H9VFPsW1GKJV4QCEXE3p-65" value="" style="shape=curlyBracket;whiteSpace=wrap;html=1;rounded=1;strokeColor=#A9C4EB;strokeWidth=2;fillColor=#FFFF00;" vertex="1" parent="1">
          <mxGeometry x="130" y="40" width="20" height="180" as="geometry" />
        </mxCell>
        <mxCell id="H9VFPsW1GKJV4QCEXE3p-67" value="共享层" style="text;html=1;strokeColor=none;fillColor=none;align=center;verticalAlign=middle;whiteSpace=wrap;rounded=0;fontSize=18;" vertex="1" parent="1">
          <mxGeometry x="10" y="120" width="80" height="20" as="geometry" />
        </mxCell>
        <mxCell id="H9VFPsW1GKJV4QCEXE3p-68" value="" style="shape=curlyBracket;whiteSpace=wrap;html=1;rounded=1;strokeColor=#A9C4EB;strokeWidth=2;fillColor=#FFFF00;" vertex="1" parent="1">
          <mxGeometry x="130" y="240" width="20" height="180" as="geometry" />
        </mxCell>
        <mxCell id="H9VFPsW1GKJV4QCEXE3p-69" value="Extract Sub" style="text;html=1;strokeColor=none;fillColor=none;align=center;verticalAlign=middle;whiteSpace=wrap;rounded=0;fontSize=18;" vertex="1" parent="1">
          <mxGeometry x="10" y="320" width="120" height="20" as="geometry" />
        </mxCell>
        <mxCell id="H9VFPsW1GKJV4QCEXE3p-73" value="" style="shape=ext;double=1;rounded=0;whiteSpace=wrap;html=1;fontSize=24;strokeColor=none;fillColor=#99FF33;" vertex="1" parent="1">
          <mxGeometry x="190" y="180" width="40" height="40" as="geometry" />
        </mxCell>
        <mxCell id="H9VFPsW1GKJV4QCEXE3p-74" value="" style="shape=ext;double=1;rounded=0;whiteSpace=wrap;html=1;fontSize=24;fontColor=#ffffff;strokeColor=none;fillColor=#99FF33;" vertex="1" parent="1">
          <mxGeometry x="250" y="180" width="40" height="40" as="geometry" />
        </mxCell>
        <mxCell id="H9VFPsW1GKJV4QCEXE3p-75" value="" style="shape=ext;double=1;rounded=0;whiteSpace=wrap;html=1;fontSize=24;strokeColor=none;fillColor=#99FF33;" vertex="1" parent="1">
          <mxGeometry x="310" y="180" width="40" height="40" as="geometry" />
        </mxCell>
        <mxCell id="H9VFPsW1GKJV4QCEXE3p-76" value="" style="shape=ext;double=1;rounded=0;whiteSpace=wrap;html=1;fontSize=24;strokeColor=none;fillColor=#99FF33;" vertex="1" parent="1">
          <mxGeometry x="370" y="180" width="40" height="40" as="geometry" />
        </mxCell>
        <mxCell id="H9VFPsW1GKJV4QCEXE3p-77" value="" style="shape=ext;double=1;rounded=0;whiteSpace=wrap;html=1;fontSize=24;strokeColor=none;fillColor=#99FF33;" vertex="1" parent="1">
          <mxGeometry x="430" y="180" width="40" height="40" as="geometry" />
        </mxCell>
        <mxCell id="H9VFPsW1GKJV4QCEXE3p-78" value="" style="shape=ext;double=1;rounded=0;whiteSpace=wrap;html=1;fontSize=24;fontColor=#ffffff;strokeColor=none;fillColor=#99FF33;" vertex="1" parent="1">
          <mxGeometry x="490" y="180" width="40" height="40" as="geometry" />
        </mxCell>
        <mxCell id="H9VFPsW1GKJV4QCEXE3p-79" value="" style="shape=ext;double=1;rounded=0;whiteSpace=wrap;html=1;fontSize=24;strokeColor=none;fillColor=#99FF33;" vertex="1" parent="1">
          <mxGeometry x="550" y="180" width="40" height="40" as="geometry" />
        </mxCell>
        <mxCell id="H9VFPsW1GKJV4QCEXE3p-84" value="" style="shape=ext;double=1;rounded=0;whiteSpace=wrap;html=1;fontSize=24;strokeColor=none;fillColor=#99FF33;" vertex="1" parent="1">
          <mxGeometry x="190" y="520" width="40" height="40" as="geometry" />
        </mxCell>
        <mxCell id="H9VFPsW1GKJV4QCEXE3p-85" value="" style="shape=ext;double=1;rounded=0;whiteSpace=wrap;html=1;fontSize=24;fontColor=#ffffff;strokeColor=none;fillColor=#99FF33;" vertex="1" parent="1">
          <mxGeometry x="250" y="520" width="40" height="40" as="geometry" />
        </mxCell>
        <mxCell id="H9VFPsW1GKJV4QCEXE3p-86" value="" style="shape=ext;double=1;rounded=0;whiteSpace=wrap;html=1;fontSize=24;strokeColor=none;fillColor=#99FF33;" vertex="1" parent="1">
          <mxGeometry x="310" y="520" width="40" height="40" as="geometry" />
        </mxCell>
        <mxCell id="H9VFPsW1GKJV4QCEXE3p-87" value="" style="shape=ext;double=1;rounded=0;whiteSpace=wrap;html=1;fontSize=24;strokeColor=none;fillColor=#99FF33;" vertex="1" parent="1">
          <mxGeometry x="370" y="520" width="40" height="40" as="geometry" />
        </mxCell>
        <mxCell id="H9VFPsW1GKJV4QCEXE3p-88" value="" style="shape=ext;double=1;rounded=0;whiteSpace=wrap;html=1;fontSize=24;strokeColor=none;fillColor=#99FF33;" vertex="1" parent="1">
          <mxGeometry x="430" y="520" width="40" height="40" as="geometry" />
        </mxCell>
        <mxCell id="H9VFPsW1GKJV4QCEXE3p-89" value="" style="shape=ext;double=1;rounded=0;whiteSpace=wrap;html=1;fontSize=24;fontColor=#ffffff;strokeColor=none;fillColor=#99FF33;" vertex="1" parent="1">
          <mxGeometry x="490" y="520" width="40" height="40" as="geometry" />
        </mxCell>
        <mxCell id="H9VFPsW1GKJV4QCEXE3p-90" value="" style="shape=ext;double=1;rounded=0;whiteSpace=wrap;html=1;fontSize=24;strokeColor=none;fillColor=#99FF33;" vertex="1" parent="1">
          <mxGeometry x="550" y="520" width="40" height="40" as="geometry" />
        </mxCell>
        <mxCell id="H9VFPsW1GKJV4QCEXE3p-94" value="" style="shape=curlyBracket;whiteSpace=wrap;html=1;rounded=1;strokeColor=#A9C4EB;strokeWidth=2;fillColor=#FFFF00;" vertex="1" parent="1">
          <mxGeometry x="130" y="520" width="20" height="300" as="geometry" />
        </mxCell>
        <mxCell id="H9VFPsW1GKJV4QCEXE3p-95" value="Extract PO" style="text;html=1;strokeColor=none;fillColor=none;align=center;verticalAlign=middle;whiteSpace=wrap;rounded=0;fontSize=18;" vertex="1" parent="1">
          <mxGeometry x="10" y="660" width="120" height="20" as="geometry" />
        </mxCell>
        <mxCell id="H9VFPsW1GKJV4QCEXE3p-96" value="" style="shape=ext;double=1;rounded=0;whiteSpace=wrap;html=1;fontSize=24;fillColor=#e1d5e7;strokeColor=none;" vertex="1" parent="1">
          <mxGeometry x="250" y="580" width="40" height="40" as="geometry" />
        </mxCell>
        <mxCell id="H9VFPsW1GKJV4QCEXE3p-97" style="edgeStyle=orthogonalEdgeStyle;rounded=0;orthogonalLoop=1;jettySize=auto;html=1;exitX=0.5;exitY=1;exitDx=0;exitDy=0;entryX=0.5;entryY=0;entryDx=0;entryDy=0;fillColor=#ffe6cc;strokeColor=#d79b00;" edge="1" parent="1" source="H9VFPsW1GKJV4QCEXE3p-85" target="H9VFPsW1GKJV4QCEXE3p-96">
          <mxGeometry relative="1" as="geometry">
            <mxPoint x="270" y="559.9999999999998" as="sourcePoint" />
            <mxPoint x="270" y="779.9999999999998" as="targetPoint" />
          </mxGeometry>
        </mxCell>
      </root>
    </mxGraphModel>
  </diagram>
</mxfile>
